# xmcd
#
# Track frame offsets: 
#        150
#        16705
#        32835
#        47660
#        63042
#        78080
#        96077
#        114040
#        126815
#        146020
#
# Disc length: 2193 seconds
#
# Revision: 0
# Processed by: cddbd v1.5.1PL2 Copyright (c) Steve Scherf et al.
# Submitted via: ExactAudioCopy v0.95b4
#
DISCID=6e088f0a
DTITLE=วี จิราพร - วัยสาว
DYEAR=1900
DGENRE=Country
TTITLE0=ปีหน้าค่อยมาจีบ
TTITLE1=วัยสาว
TTITLE2=เลือกเรียนไว้ก่อน
TTITLE3=เพื่อนหนูแอบรัก
TTITLE4=ของฝากอยากได้ทอง
TTITLE5=เปิดใจให้จอง
TTITLE6=ไม่เคยรัก
TTITLE7=สาวกระเตาะ
TTITLE8=ชอบเราใช่ไหมล่ะ
TTITLE9=อายเขาสิ
EXTD=
EXTT0=
EXTT1=
EXTT2=
EXTT3=
EXTT4=
EXTT5=
EXTT6=
EXTT7=
EXTT8=
EXTT9=
PLAYORDER=
